<svg xmlns="http://www.w3.org/2000/svg" viewBox="0 0 256 256" role="img" aria-labelledby="title desc">
  <title id="title">さざなみゆん 歌唱データベース Icon</title>
  <desc id="desc">A sea themed icon with a dolphin and anchor in aqua, sailor blue, white, and gold.</desc>
  <defs>
    <linearGradient id="bg" x1="24" y1="18" x2="232" y2="238" gradientUnits="userSpaceOnUse">
      <stop offset="0" stop-color="#d8fbff"/>
      <stop offset=".54" stop-color="#a5eef7"/>
      <stop offset="1" stop-color="#fff2fb"/>
    </linearGradient>
    <linearGradient id="sea" x1="40" y1="180" x2="220" y2="214" gradientUnits="userSpaceOnUse">
      <stop offset="0" stop-color="#3dc6df"/>
      <stop offset=".64" stop-color="#238cc6"/>
      <stop offset="1" stop-color="#1f5aa6"/>
    </linearGradient>
    <linearGradient id="dolphin" x1="54" y1="85" x2="160" y2="147" gradientUnits="userSpaceOnUse">
      <stop offset="0" stop-color="#7de3ef"/>
      <stop offset=".58" stop-color="#36bad6"/>
      <stop offset="1" stop-color="#2382bd"/>
    </linearGradient>
    <linearGradient id="anchor" x1="113" y1="76" x2="166" y2="194" gradientUnits="userSpaceOnUse">
      <stop offset="0" stop-color="#2f75bf"/>
      <stop offset="1" stop-color="#153f87"/>
    </linearGradient>
    <filter id="shadow" x="-20%" y="-20%" width="140%" height="140%" color-interpolation-filters="sRGB">
      <feDropShadow dx="0" dy="10" stdDeviation="10" flood-color="#126f90" flood-opacity=".24"/>
    </filter>
  </defs>

  <rect width="256" height="256" rx="58" fill="url(#bg)"/>
  <circle cx="205" cy="44" r="18" fill="#fff9d7" opacity=".88"/>
  <circle cx="54" cy="48" r="9" fill="#ffffff" opacity=".76"/>
  <circle cx="83" cy="35" r="5" fill="#ffffff" opacity=".7"/>

  <path d="M23 186c26-17 49-17 76 0s52 17 80 0 51-17 75 0v42H23z" fill="url(#sea)" opacity=".96"/>
  <path d="M32 198c20-11 38-11 58 0s39 11 60 0 39-11 58 0" fill="none" stroke="#effcff" stroke-width="8" stroke-linecap="round" opacity=".74"/>

  <g filter="url(#shadow)">
    <path d="M60 118c19-32 61-45 98-31 13 5 25 13 35 24-20 6-42 7-64 2-8 14-20 24-36 31 4-13 2-23-5-31-9 2-18 3-28 5z" fill="url(#dolphin)"/>
    <path d="M150 88c6-14 19-22 38-24-9 14-18 25-27 32z" fill="#5dd6e7"/>
    <path d="M119 113c-8 11-21 18-39 21 8-10 13-19 15-28z" fill="#2286bd"/>
    <circle cx="78" cy="111" r="4" fill="#134166"/>
    <path d="M72 125c13 5 28 4 45-4" fill="none" stroke="#eafdff" stroke-width="5" stroke-linecap="round" opacity=".78"/>
  </g>

  <g filter="url(#shadow)">
    <circle cx="139" cy="75" r="13" fill="none" stroke="#fffdf2" stroke-width="14"/>
    <circle cx="139" cy="75" r="13" fill="none" stroke="url(#anchor)" stroke-width="8"/>
    <path d="M139 91v82" fill="none" stroke="#fffdf2" stroke-width="16" stroke-linecap="round"/>
    <path d="M139 91v82" fill="none" stroke="url(#anchor)" stroke-width="10" stroke-linecap="round"/>
    <path d="M113 112h52" fill="none" stroke="#fffdf2" stroke-width="16" stroke-linecap="round"/>
    <path d="M113 112h52" fill="none" stroke="url(#anchor)" stroke-width="10" stroke-linecap="round"/>
    <path d="M93 148c8 28 30 43 46 43s38-15 46-43" fill="none" stroke="#fffdf2" stroke-width="16" stroke-linecap="round"/>
    <path d="M93 148c8 28 30 43 46 43s38-15 46-43" fill="none" stroke="url(#anchor)" stroke-width="10" stroke-linecap="round"/>
    <path d="M89 147l21-1-13 17" fill="none" stroke="#fffdf2" stroke-width="13" stroke-linecap="round" stroke-linejoin="round"/>
    <path d="M189 147l-21-1 13 17" fill="none" stroke="#fffdf2" stroke-width="13" stroke-linecap="round" stroke-linejoin="round"/>
    <path d="M89 147l21-1-13 17" fill="none" stroke="#153f87" stroke-width="7" stroke-linecap="round" stroke-linejoin="round"/>
    <path d="M189 147l-21-1 13 17" fill="none" stroke="#153f87" stroke-width="7" stroke-linecap="round" stroke-linejoin="round"/>
    <circle cx="139" cy="139" r="7" fill="#ffd86b" stroke="#fffdf2" stroke-width="4"/>
  </g>

  <g fill="#ffffff" opacity=".86">
    <circle cx="40" cy="157" r="4"/>
    <circle cx="212" cy="139" r="6"/>
    <circle cx="221" cy="160" r="3"/>
  </g>
</svg>
